<svg version="1.1" id="Layer_1" xmlns="http://www.w3.org/2000/svg" xmlns:xlink="http://www.w3.org/1999/xlink" x="0px" y="0px"
	 width="100%" viewBox="0 0 202 202" enable-background="new 0 0 202 202" xml:space="preserve">
<path fill="#FEFFFF" opacity="1.000000" stroke="none" 
	d="
M144.000000,203.000000 
	C96.000000,203.000000 48.500004,203.000000 1.000006,203.000000 
	C1.000004,135.666672 1.000004,68.333344 1.000002,1.000015 
	C68.333321,1.000010 135.666641,1.000010 202.999969,1.000005 
	C202.999985,68.333321 202.999985,135.666641 203.000000,202.999969 
	C183.500000,203.000000 164.000000,203.000000 144.000000,203.000000 
M87.240669,150.320129 
	C120.300110,162.071442 155.035156,140.200409 157.686630,105.963608 
	C159.917892,77.153061 137.329376,50.890488 108.997925,49.355553 
	C79.534790,47.759308 53.879532,70.824112 53.641926,100.279320 
	C53.452427,123.770920 65.165482,140.313187 87.240669,150.320129 
z"/>
<path fill="#4BA1FF" opacity="1.000000" stroke="none" 
	d="
M86.886429,150.167206 
	C65.165482,140.313187 53.452427,123.770920 53.641926,100.279320 
	C53.879532,70.824112 79.534790,47.759308 108.997925,49.355553 
	C137.329376,50.890488 159.917892,77.153061 157.686630,105.963608 
	C155.035156,140.200409 120.300110,162.071442 86.886429,150.167206 
M81.555084,69.987877 
	C69.017906,80.521782 63.569576,93.815536 67.068222,109.965355 
	C70.710678,126.778976 81.686394,136.834808 98.213707,140.670868 
	C112.569290,144.002869 129.568741,136.886292 138.038330,124.450645 
	C138.834000,123.282402 139.939819,120.911453 139.588074,120.604591 
	C137.262604,118.575859 134.759064,116.449852 131.926865,115.441658 
	C130.675156,114.996071 128.036041,116.682266 126.852371,118.093277 
	C118.162834,128.451767 104.255676,131.402557 92.652405,125.099251 
	C81.329941,118.948502 76.174629,105.711609 80.140182,92.972557 
	C85.185463,76.764946 106.312645,69.345848 120.289993,78.873405 
	C124.708923,81.885536 124.892975,83.221588 121.282280,86.994469 
	C119.325760,89.038857 117.273163,90.991066 115.273506,92.994438 
	C105.990227,102.294968 105.853813,102.433029 96.729851,93.258156 
	C93.248993,89.757874 91.158890,91.234634 88.602753,94.022522 
	C86.251457,96.587006 82.941154,98.599174 87.123398,102.483902 
	C92.365341,107.352928 97.372185,112.486320 102.301826,117.675369 
	C104.637146,120.133553 106.349663,120.364754 108.849846,117.795731 
	C118.603645,107.773407 128.454361,97.841835 138.442230,88.053268 
	C141.087494,85.460793 141.277634,83.459732 139.279938,80.331718 
	C126.680420,60.603165 101.322876,55.734943 81.555084,69.987877 
z"/>
<path fill="#F7F9FE" opacity="1.000000" stroke="none" 
	d="
M81.830208,69.755753 
	C101.322876,55.734943 126.680420,60.603165 139.279938,80.331718 
	C141.277634,83.459732 141.087494,85.460793 138.442230,88.053268 
	C128.454361,97.841835 118.603645,107.773407 108.849846,117.795731 
	C106.349663,120.364754 104.637146,120.133553 102.301826,117.675369 
	C97.372185,112.486320 92.365341,107.352928 87.123398,102.483902 
	C82.941154,98.599174 86.251457,96.587006 88.602753,94.022522 
	C91.158890,91.234634 93.248993,89.757874 96.729851,93.258156 
	C105.853813,102.433029 105.990227,102.294968 115.273506,92.994438 
	C117.273163,90.991066 119.325760,89.038857 121.282280,86.994469 
	C124.892975,83.221588 124.708923,81.885536 120.289993,78.873405 
	C106.312645,69.345848 85.185463,76.764946 80.140182,92.972557 
	C76.174629,105.711609 81.329941,118.948502 92.652405,125.099251 
	C104.255676,131.402557 118.162834,128.451767 126.852371,118.093277 
	C128.036041,116.682266 130.675156,114.996071 131.926865,115.441658 
	C134.759064,116.449852 137.262604,118.575859 139.588074,120.604591 
	C139.939819,120.911453 138.834000,123.282402 138.038330,124.450645 
	C129.568741,136.886292 112.569290,144.002869 98.213707,140.670868 
	C81.686394,136.834808 70.710678,126.778976 67.068222,109.965355 
	C63.569576,93.815536 69.017906,80.521782 81.830208,69.755753 
z"/>
</svg>