<?xml version="1.0" standalone="no"?>
<!DOCTYPE svg PUBLIC "-//W3C//DTD SVG 20010904//EN"
 "http://www.w3.org/TR/2001/REC-SVG-20010904/DTD/svg10.dtd">
<svg version="1.0" xmlns="http://www.w3.org/2000/svg"
 width="500.000000pt" height="500.000000pt" viewBox="0 0 500.000000 500.000000"
 preserveAspectRatio="xMidYMid meet">

<g transform="translate(0.000000,500.000000) scale(0.100000,-0.100000)"
fill="#000000" stroke="none">
<path d="M1694 3491 c-19 -11 -36 -34 -43 -53 -10 -34 -22 -392 -13 -416 3
-10 9 -9 23 4 10 9 16 20 14 25 -3 4 6 17 21 28 14 11 23 25 19 31 -4 6 -1 9
7 8 7 -2 12 3 11 10 -2 6 1 11 5 10 4 -2 20 11 35 27 15 17 60 63 100 104 39
41 71 78 70 83 -2 4 1 7 5 5 11 -3 72 50 65 57 -4 3 -1 6 6 6 7 0 9 5 6 10 -3
6 -2 10 3 10 9 0 79 59 71 61 -2 0 -87 3 -189 5 -172 5 -187 4 -216 -15z m260
-109 c3 -5 -1 -9 -9 -9 -8 0 -12 4 -9 9 3 4 7 8 9 8 2 0 6 -4 9 -8z"/>
<path d="M2623 3415 c0 -8 4 -12 9 -9 5 3 6 10 3 15 -9 13 -12 11 -12 -6z"/>
<path d="M2497 3339 c-33 -30 -56 -57 -53 -65 3 -7 0 -11 -7 -8 -14 5 -137
-112 -137 -130 0 -6 4 -5 9 3 12 19 68 5 76 -20 4 -11 4 -38 0 -59 l-7 -40
-73 0 c-41 0 -77 5 -80 10 -3 6 -12 10 -18 9 -9 0 -9 -2 0 -6 10 -3 9 -9 -3
-20 -11 -12 -15 -33 -14 -77 4 -105 9 -98 -67 -94 -66 3 -68 4 -65 28 3 20 2
22 -11 12 -8 -7 -33 -39 -54 -70 -21 -31 -40 -59 -43 -62 -3 -3 -23 -31 -43
-62 -21 -32 -42 -58 -46 -58 -16 0 -19 -39 -5 -51 18 -14 148 -5 244 17 89 20
181 55 174 65 -3 5 1 6 9 3 15 -5 171 64 217 96 14 10 34 19 45 21 14 3 19 12
18 32 -1 15 -1 142 -2 283 -1 183 -4 253 -12 248 -6 -3 -3 5 6 20 26 40 6 31
-58 -25z m-24 -54 c-3 -9 -8 -14 -10 -11 -3 3 -2 9 2 15 9 16 15 13 8 -4z"/>
<path d="M3409 3133 c-13 -16 -12 -17 4 -4 9 7 17 15 17 17 0 8 -8 3 -21 -13z"/>
<path d="M3405 3100 c-3 -5 -2 -10 4 -10 5 0 13 5 16 10 3 6 2 10 -4 10 -5 0
-13 -4 -16 -10z"/>
<path d="M3340 3068 c-15 -21 -17 -28 -6 -19 16 13 41 51 33 51 -2 0 -14 -15
-27 -32z"/>
<path d="M1605 3071 c-6 -11 13 -26 22 -17 4 3 1 6 -6 6 -7 0 -9 5 -6 10 3 6
4 10 1 10 -3 0 -7 -4 -11 -9z"/>
<path d="M2744 3009 c3 -17 6 -38 6 -45 0 -8 7 -14 16 -14 9 0 12 -5 8 -12 -4
-7 1 -6 12 3 10 9 27 19 37 22 10 4 16 11 13 16 -4 5 2 12 11 14 10 2 -4 4
-32 3 -45 -1 -50 1 -53 22 -2 12 -8 22 -14 22 -6 0 -8 -12 -4 -31z"/>
<path d="M3330 3020 c-9 -6 -10 -10 -3 -10 6 0 15 5 18 10 8 12 4 12 -15 0z"/>
<path d="M3229 2971 c-9 -3 -29 -16 -45 -29 -16 -12 -38 -29 -49 -38 -20 -15
-20 -15 2 -5 29 15 33 14 27 -4 -4 -8 -2 -15 2 -15 12 0 41 20 30 20 -5 0 -2
8 5 17 12 14 12 16 0 8 -10 -5 -12 -4 -7 4 5 7 16 9 28 5 15 -4 18 -3 13 6 -4
7 -2 16 6 21 18 10 9 18 -12 10z"/>
<path d="M2739 2913 c-13 -16 -12 -17 4 -4 16 13 21 21 13 21 -2 0 -10 -8 -17
-17z"/>
<path d="M3090 2875 c0 -2 6 -8 13 -14 10 -8 14 -7 14 2 0 8 -6 14 -14 14 -7
0 -13 -1 -13 -2z"/>
<path d="M2951 2777 c-8 -10 -7 -14 2 -14 8 0 14 6 14 14 0 7 -1 13 -2 13 -2
0 -8 -6 -14 -13z"/>
<path d="M2862 2731 c-11 -7 -11 -9 0 -14 9 -3 15 1 15 9 0 8 -1 14 -1 14 -1
0 -7 -4 -14 -9z"/>
<path d="M2623 2598 c-18 -5 -39 -18 -47 -29 -8 -12 -19 -18 -25 -14 -6 3 -35
-5 -64 -18 -28 -13 -73 -32 -99 -43 -25 -10 -44 -23 -41 -28 4 -5 1 -6 -5 -2
-6 4 -53 -7 -104 -23 -51 -17 -111 -33 -133 -37 -90 -15 -90 -17 -29 -79 l55
-56 60 56 c33 30 66 55 73 55 14 0 76 -61 76 -75 0 -5 -27 -37 -61 -71 l-60
-61 60 -64 c33 -35 61 -69 61 -75 0 -13 -65 -74 -80 -74 -5 0 -10 4 -10 9 0 6
-13 18 -30 28 -16 9 -30 22 -30 28 0 6 -14 24 -30 40 l-30 29 -58 -57 c-32
-31 -65 -57 -74 -57 -27 0 -48 11 -48 26 0 7 -9 19 -20 27 -18 13 -16 16 40
72 33 33 60 65 60 73 0 7 -13 25 -29 40 -15 15 -36 39 -46 55 -9 15 -24 27
-31 27 -21 0 -17 16 11 44 l25 25 -134 0 -134 0 -15 -32 c-37 -78 -39 -92 -38
-322 1 -299 8 -315 126 -315 17 0 34 -3 38 -6 3 -3 84 -8 179 -10 182 -5 388
-18 425 -27 13 -3 26 0 30 7 5 7 33 24 63 39 30 14 66 35 80 47 l25 21 -25
-12 c-21 -9 -23 -9 -12 2 9 10 12 102 12 391 0 353 1 378 18 378 9 0 24 5 32
10 11 7 5 9 -20 5 l-35 -5 30 15 c32 16 55 16 618 -11 88 -4 137 -3 137 4 0
18 -29 21 -322 32 -161 6 -313 14 -338 19 -25 4 -60 3 -77 -1z m-68 -58 c3 -6
-1 -7 -9 -4 -18 7 -21 14 -7 14 6 0 13 -4 16 -10z"/>
<path d="M2656 2539 c2 -4 -4 -9 -13 -11 -10 -2 11 -4 47 -4 35 1 57 2 47 4
-9 2 -17 7 -17 12 0 5 -16 9 -35 8 -19 -1 -32 -5 -29 -9z"/>
<path d="M2797 2533 c6 -15 13 -16 31 -4 10 6 7 10 -11 13 -18 4 -24 1 -20 -9z"/>
<path d="M3208 2523 c7 -3 16 -2 19 1 4 3 -2 6 -13 5 -11 0 -14 -3 -6 -6z"/>
<path d="M3449 2503 c-13 -16 -12 -17 4 -4 16 13 21 21 13 21 -2 0 -10 -8 -17
-17z"/>
<path d="M2680 2493 c0 -7 7 -13 15 -13 8 0 15 6 15 13 0 8 -7 14 -15 14 -8 0
-15 -6 -15 -14z"/>
<path d="M2720 2400 c0 -22 5 -40 10 -40 6 0 10 18 10 40 0 22 -4 40 -10 40
-5 0 -10 -18 -10 -40z"/>
<path d="M3363 2418 c-1 -11 -11 -29 -22 -40 -21 -19 -26 -28 -16 -28 8 0 75
68 75 76 0 4 -3 4 -7 1 -3 -4 -11 -3 -17 3 -8 6 -12 2 -13 -12z"/>
<path d="M2968 2353 c6 -2 18 -2 25 0 6 3 1 5 -13 5 -14 0 -19 -2 -12 -5z"/>
<path d="M3289 2358 c0 -2 -2 -11 -4 -21 -3 -15 -1 -16 11 -6 7 6 11 15 8 20
-5 9 -13 12 -15 7z"/>
<path d="M2740 2291 c0 -11 -4 -23 -10 -26 -5 -3 -10 -1 -10 4 0 6 -4 11 -10
11 -6 0 -10 -33 -10 -80 0 -62 3 -80 14 -80 8 0 16 -5 18 -12 4 -10 77 -16
261 -20 38 0 71 17 61 33 -3 5 -2 8 3 7 5 -2 15 3 23 10 8 7 23 18 33 25 16
11 14 14 -21 23 -35 9 -39 9 -34 -5 5 -13 3 -14 -9 -4 -8 7 -64 13 -142 15
-144 3 -147 5 -147 76 0 23 -4 42 -10 42 -5 0 -10 -9 -10 -19z m280 -187 c0
-8 -19 -13 -24 -6 -3 5 1 9 9 9 8 0 15 -2 15 -3z"/>
<path d="M3414 2145 c3 -23 12 -26 13 -5 1 11 -2 20 -7 20 -4 0 -7 -7 -6 -15z"/>
<path d="M3329 2077 c-8 -6 -12 -11 -10 -10 2 1 12 -2 21 -7 14 -7 18 -6 16 5
-3 22 -11 26 -27 12z"/>
<path d="M2721 2051 c-20 -18 -22 -28 -20 -88 2 -37 -1 -74 -5 -82 -6 -10 -5
-12 2 -7 7 4 12 3 12 -2 0 -14 -43 -23 -51 -11 -5 8 -9 8 -13 0 -4 -6 -2 -11
5 -11 8 0 9 -3 0 -13 -6 -8 -8 -17 -5 -20 4 -4 -6 -11 -21 -17 -15 -6 -25 -13
-21 -17 10 -10 51 16 61 39 6 12 17 24 25 26 13 5 13 3 1 -11 -8 -10 -9 -17
-3 -17 6 0 14 9 17 20 6 18 11 21 30 20 7 -1 124 81 130 90 6 9 -38 6 -55 -4
-8 -5 -12 -6 -8 -1 5 5 -2 13 -15 19 -16 8 -24 23 -28 54 -7 53 -11 56 -38 33z"/>
<path d="M3300 2011 c0 -22 5 -43 10 -46 6 -4 10 12 10 39 0 25 -4 46 -10 46
-5 0 -10 -18 -10 -39z"/>
<path d="M2603 2000 c0 -25 2 -35 4 -22 2 12 2 32 0 45 -2 12 -4 2 -4 -23z"/>
<path d="M2633 2000 c0 -25 2 -35 4 -22 2 12 2 32 0 45 -2 12 -4 2 -4 -23z"/>
<path d="M3351 1974 c0 -11 3 -14 6 -6 3 7 2 16 -1 19 -3 4 -6 -2 -5 -13z"/>
<path d="M3177 1945 c-8 -8 -17 -12 -20 -9 -7 7 -53 -38 -49 -48 1 -5 -2 -7
-7 -5 -10 2 -199 -134 -200 -144 -1 -9 43 -26 57 -22 24 9 12 25 -14 19 -17
-5 -23 -3 -19 4 3 5 13 10 21 10 8 0 13 4 10 9 -3 5 5 16 18 24 13 9 31 23 40
32 9 9 16 13 16 9 0 -4 6 1 14 12 8 10 17 16 20 13 4 -3 -6 -18 -20 -33 -15
-14 -24 -29 -21 -33 4 -3 16 6 28 20 11 15 27 27 35 27 8 0 12 5 9 10 -8 12 8
13 20 1 6 -5 32 -11 58 -14 36 -3 50 -1 54 9 3 8 11 14 19 14 8 0 14 5 14 10
0 6 -6 10 -12 10 -10 0 -10 2 -2 8 7 4 14 18 15 32 4 22 0 25 -34 28 -20 2
-35 7 -32 13 9 14 -2 11 -18 -6z"/>
<path d="M3370 1920 c0 -22 5 -40 10 -40 6 0 10 18 10 40 0 22 -4 40 -10 40
-5 0 -10 -18 -10 -40z"/>
<path d="M3413 1920 c0 -25 2 -35 4 -22 2 12 2 32 0 45 -2 12 -4 2 -4 -23z"/>
<path d="M2590 1870 c0 -5 5 -10 10 -10 6 0 10 5 10 10 0 6 -4 10 -10 10 -5 0
-10 -4 -10 -10z"/>
<path d="M3267 1843 c-11 -10 -8 -43 3 -43 6 0 10 11 10 25 0 26 -2 29 -13 18z"/>
<path d="M2590 1830 c0 -5 5 -10 10 -10 6 0 10 5 10 10 0 6 -4 10 -10 10 -5 0
-10 -4 -10 -10z"/>
<path d="M3090 1815 c-14 -16 -10 -18 14 -9 9 3 16 10 16 15 0 14 -16 11 -30
-6z"/>
<path d="M3175 1810 c3 -5 8 -10 11 -10 2 0 4 5 4 10 0 6 -5 10 -11 10 -5 0
-7 -4 -4 -10z"/>
<path d="M3320 1810 c0 -5 7 -10 15 -10 8 0 15 5 15 10 0 6 -7 10 -15 10 -8 0
-15 -4 -15 -10z"/>
<path d="M3355 1759 c-4 -6 -5 -12 -2 -15 2 -3 7 2 10 11 7 17 1 20 -8 4z"/>
<path d="M2866 1711 c-10 -11 -25 -17 -34 -14 -11 5 -13 3 -7 -7 5 -9 4 -11
-4 -6 -6 4 -23 -2 -37 -13 -15 -12 -23 -21 -18 -22 5 0 23 -2 39 -3 17 -2 40
3 52 10 19 12 22 12 17 0 -4 -12 4 -14 43 -13 26 0 129 -2 228 -5 198 -6 232
0 254 48 15 34 15 34 -16 34 -20 0 -24 -3 -14 -9 7 -5 10 -14 6 -21 -6 -9 -9
-9 -16 1 -7 11 -12 12 -29 2 -15 -10 -37 -11 -89 -3 -113 16 -347 15 -368 -1
-17 -13 -17 -13 0 14 20 32 17 35 -7 8z m-56 -45 c0 -2 -7 -7 -16 -10 -8 -3
-12 -2 -9 4 6 10 25 14 25 6z m35 -6 c-3 -5 -12 -10 -18 -10 -7 0 -6 4 3 10
19 12 23 12 15 0z"/>
<path d="M2288 1613 c7 -3 16 -2 19 1 4 3 -2 6 -13 5 -11 0 -14 -3 -6 -6z"/>
<path d="M2334 1414 c-18 -15 -18 -15 3 -5 27 14 36 14 28 1 -3 -6 1 -7 10 -3
13 5 14 7 3 14 -18 12 -21 11 -44 -7z"/>
<path d="M2450 1410 c8 -5 20 -10 25 -10 6 0 3 5 -5 10 -8 5 -19 10 -25 10 -5
0 -3 -5 5 -10z"/>
</g>
</svg> 